<mxfile host="app.diagrams.net" agent="Mozilla/5.0 (Windows NT 10.0; Win64; x64) AppleWebKit/537.36 (KHTML, like Gecko) Chrome/129.0.0.0 Safari/537.36" version="24.7.17">
  <diagram name="Página-1" id="p9Z0ADPJ8obi0O-sKz0-">
    <mxGraphModel dx="1434" dy="780" grid="1" gridSize="10" guides="1" tooltips="1" connect="1" arrows="1" fold="1" page="1" pageScale="1" pageWidth="827" pageHeight="1169" math="0" shadow="0">
      <root>
        <mxCell id="0" />
        <mxCell id="1" parent="0" />
        <mxCell id="FRiwAGqU8n_64E6IRlGm-8" value="" style="edgeStyle=orthogonalEdgeStyle;rounded=0;orthogonalLoop=1;jettySize=auto;html=1;" edge="1" parent="1" source="FRiwAGqU8n_64E6IRlGm-1" target="FRiwAGqU8n_64E6IRlGm-7">
          <mxGeometry relative="1" as="geometry" />
        </mxCell>
        <mxCell id="FRiwAGqU8n_64E6IRlGm-1" value="Inicio" style="ellipse;whiteSpace=wrap;html=1;aspect=fixed;" vertex="1" parent="1">
          <mxGeometry x="140" y="130" width="80" height="80" as="geometry" />
        </mxCell>
        <mxCell id="FRiwAGqU8n_64E6IRlGm-14" value="" style="edgeStyle=orthogonalEdgeStyle;rounded=0;orthogonalLoop=1;jettySize=auto;html=1;" edge="1" parent="1" source="FRiwAGqU8n_64E6IRlGm-2" target="FRiwAGqU8n_64E6IRlGm-13">
          <mxGeometry relative="1" as="geometry" />
        </mxCell>
        <mxCell id="FRiwAGqU8n_64E6IRlGm-2" value="escreva(&quot;Informe um valor&quot;)" style="shape=parallelogram;perimeter=parallelogramPerimeter;whiteSpace=wrap;html=1;fixedSize=1;" vertex="1" parent="1">
          <mxGeometry x="550" y="135" width="190" height="70" as="geometry" />
        </mxCell>
        <mxCell id="FRiwAGqU8n_64E6IRlGm-9" style="edgeStyle=orthogonalEdgeStyle;rounded=0;orthogonalLoop=1;jettySize=auto;html=1;" edge="1" parent="1" source="FRiwAGqU8n_64E6IRlGm-7" target="FRiwAGqU8n_64E6IRlGm-2">
          <mxGeometry relative="1" as="geometry" />
        </mxCell>
        <mxCell id="FRiwAGqU8n_64E6IRlGm-7" value="real numero&lt;div&gt;real raiz&lt;/div&gt;&lt;div&gt;real potencia&lt;/div&gt;" style="shape=parallelogram;perimeter=parallelogramPerimeter;whiteSpace=wrap;html=1;fixedSize=1;" vertex="1" parent="1">
          <mxGeometry x="280" y="140" width="120" height="60" as="geometry" />
        </mxCell>
        <mxCell id="FRiwAGqU8n_64E6IRlGm-18" value="" style="edgeStyle=orthogonalEdgeStyle;rounded=0;orthogonalLoop=1;jettySize=auto;html=1;" edge="1" parent="1" source="FRiwAGqU8n_64E6IRlGm-13" target="FRiwAGqU8n_64E6IRlGm-17">
          <mxGeometry relative="1" as="geometry" />
        </mxCell>
        <mxCell id="FRiwAGqU8n_64E6IRlGm-13" value="leia(&quot;numero&quot;)" style="shape=parallelogram;perimeter=parallelogramPerimeter;whiteSpace=wrap;html=1;fixedSize=1;" vertex="1" parent="1">
          <mxGeometry x="550" y="270" width="190" height="70" as="geometry" />
        </mxCell>
        <mxCell id="FRiwAGqU8n_64E6IRlGm-20" value="" style="edgeStyle=orthogonalEdgeStyle;rounded=0;orthogonalLoop=1;jettySize=auto;html=1;" edge="1" parent="1" source="FRiwAGqU8n_64E6IRlGm-17" target="FRiwAGqU8n_64E6IRlGm-19">
          <mxGeometry relative="1" as="geometry" />
        </mxCell>
        <mxCell id="FRiwAGqU8n_64E6IRlGm-17" value="potencia = numero * numero" style="whiteSpace=wrap;html=1;" vertex="1" parent="1">
          <mxGeometry x="585" y="425" width="120" height="60" as="geometry" />
        </mxCell>
        <mxCell id="FRiwAGqU8n_64E6IRlGm-22" value="" style="edgeStyle=orthogonalEdgeStyle;rounded=0;orthogonalLoop=1;jettySize=auto;html=1;" edge="1" parent="1" source="FRiwAGqU8n_64E6IRlGm-19" target="FRiwAGqU8n_64E6IRlGm-21">
          <mxGeometry relative="1" as="geometry" />
        </mxCell>
        <mxCell id="FRiwAGqU8n_64E6IRlGm-19" value="raiz = raiz(numero)" style="whiteSpace=wrap;html=1;" vertex="1" parent="1">
          <mxGeometry x="385" y="425" width="120" height="60" as="geometry" />
        </mxCell>
        <mxCell id="FRiwAGqU8n_64E6IRlGm-21" value="escreva(&quot;O numero informado foi &quot;, numero, &quot;, sua raiz é &quot;,raiz,&quot;, sua potencia &quot;, potencia)" style="shape=document;whiteSpace=wrap;html=1;boundedLbl=1;" vertex="1" parent="1">
          <mxGeometry x="342.5" y="570" width="205" height="195" as="geometry" />
        </mxCell>
      </root>
    </mxGraphModel>
  </diagram>
</mxfile>
